<svg height='300px' width='300px'  fill="#000000" xmlns="http://www.w3.org/2000/svg" xmlns:xlink="http://www.w3.org/1999/xlink" version="1.1" x="0px" y="0px" viewBox="0 0 50 50" style="enable-background:new 0 0 50 50;" xml:space="preserve"><g><path d="M9.6,8c0.6,0,1-0.4,1-1V3.3c0-0.2,0.1-0.3,0.3-0.3h3.7c0.6,0,1-0.4,1-1s-0.4-1-1-1h-3.7C9.6,1,8.6,2,8.6,3.3V7   C8.6,7.6,9,8,9.6,8z"></path><path d="M10.9,29.9h3.7c0.6,0,1-0.4,1-1s-0.4-1-1-1h-3.7c-0.1,0-0.3-0.1-0.3-0.3v-3.7c0-0.6-0.4-1-1-1s-1,0.4-1,1v3.7   C8.6,28.8,9.6,29.9,10.9,29.9z"></path><path d="M40.4,22.9c-0.6,0-1,0.4-1,1v3.7c0,0.2-0.1,0.3-0.3,0.3h-3.7c-0.6,0-1,0.4-1,1s0.4,1,1,1h3.7c1.3,0,2.3-1,2.3-2.3v-3.7   C41.4,23.3,41,22.9,40.4,22.9z"></path><path d="M35.4,3h3.7c0.2,0,0.3,0.1,0.3,0.3V7c0,0.6,0.4,1,1,1s1-0.4,1-1V3.3c0-1.3-1-2.3-2.3-2.3h-3.7c-0.6,0-1,0.4-1,1   S34.8,3,35.4,3z"></path><path d="M6.6,49h36.7c0.6,0,1-0.4,1-1v-3.8c0-4.3-3.4-8.2-8.8-10c-3-1-5-3-5-5.2v-1.6c3.1-2.9,5.1-7.9,5.1-12.4   c0-6.6-4.1-10.6-10.7-10.6S14.3,8.4,14.3,15c0,4.5,2,9.5,5.1,12.4V29c0,2.2-1.9,4.2-5,5.2c-5.3,1.8-8.8,5.7-8.8,10V48   C5.6,48.6,6.1,49,6.6,49z M16.3,15c0-5.4,3.3-8.6,8.7-8.6c5.5,0,8.7,3.2,8.7,8.6c0,5.9-3.9,12.9-8.7,12.9S16.3,20.8,16.3,15z    M7.6,44.2c0-3.4,2.9-6.6,7.4-8.1c3.9-1.3,6.3-4,6.3-7.1v-0.1c1.1,0.6,2.3,1,3.6,1s2.5-0.4,3.6-1V29c0,3.1,2.4,5.8,6.3,7.1   c4.5,1.5,7.4,4.7,7.4,8.1V47H7.6V44.2z"></path></g></svg>